<?xml version="1.0" standalone="no"?>
<!DOCTYPE svg PUBLIC "-//W3C//DTD SVG 20010904//EN"
 "http://www.w3.org/TR/2001/REC-SVG-20010904/DTD/svg10.dtd">
<svg version="1.0" xmlns="http://www.w3.org/2000/svg"
 width="700.000000pt" height="700.000000pt" viewBox="0 0 700.000000 700.000000"
 preserveAspectRatio="xMidYMid meet">
<metadata>
Created by potrace 1.14, written by Peter Selinger 2001-2017
</metadata>
<g transform="translate(0.000000,700.000000) scale(0.100000,-0.100000)"
fill="#000000" stroke="none">
<path d="M700 3500 l0 -2760 850 0 c468 0 850 3 851 8 3 24 4 5489 1 5500 -3
9 -183 12 -853 12 l-849 0 0 -2760z"/>
<path d="M2630 6208 c-1 -82 -1 -5399 0 -5435 l0 -33 850 0 850 0 0 2760 0
2760 -850 0 -850 0 0 -52z"/>
<path d="M4555 3500 l0 -2760 853 0 852 0 0 2760 0 2760 -853 0 -852 0 0
-2760z"/>
</g>
</svg>
